<svg width="70" height="38" viewBox="0 0 70 38" fill="none" xmlns="http://www.w3.org/2000/svg">
<rect width="70" height="38" rx="2" fill="white"/>
<path d="M30.1715 13.3467L28.3282 15.1579L26.501 13.3467L28.3282 11.5515L30.1715 13.3467ZM34.6434 8.95492L37.7208 12.0644L39.6282 10.2532L36.4225 7.14372L34.6434 5.33252L32.8161 7.14372L29.7066 10.2532L31.4858 12.0644L34.6434 8.95492ZM40.9265 11.5515L39.1153 13.3467L40.9265 15.1579L42.7857 13.3467L40.9265 11.5515ZM34.6434 17.7384L31.4377 14.645L29.7066 16.4562L32.9123 19.5496L34.6273 21.3608L36.4546 19.5496L39.6602 16.4562L37.7208 14.645L34.6434 17.7384ZM34.6434 15.1579L36.4866 13.3467L34.6434 11.5515L32.8161 13.3467L34.6434 15.1579Z" fill="#F0B90B"/>
<path d="M9.80064 29.5348C9.80973 29.2147 9.7104 28.9008 9.51855 28.6434C9.32671 28.3861 9.05347 28.2002 8.74263 28.1155C8.97943 28.0037 9.17846 27.8259 9.31556 27.6039C9.45266 27.3818 9.52194 27.1249 9.51498 26.8645C9.47266 25.9183 8.72147 25.3401 7.52591 25.3401H4.78564V31.1118H7.58939C8.92249 31.1118 9.80064 30.5861 9.80064 29.5348ZM8.18188 27.0642C8.18188 27.4953 7.82215 27.6845 7.25082 27.6845H6.04468V26.4545H7.32488C7.87505 26.4545 8.18188 26.6647 8.18188 27.0537V27.0642ZM8.50986 29.3771C8.50986 29.8082 8.16072 29.9974 7.58939 29.9974H6.04468V28.7358H7.55765C8.21362 28.7358 8.50986 28.9671 8.50986 29.3666V29.3771ZM12.5197 31.1118V25.3401H11.229V31.1118H12.5197ZM19.4921 31.1118V25.3401H18.2119V28.8935L15.4399 25.3401H14.2443V31.1118H15.5245V27.4427L18.3812 31.1223H19.4921V31.1118ZM26.676 31.1118L24.1473 25.298H22.9518L20.4231 31.1118H21.7139L22.2641 29.8187H24.7504L25.3006 31.1118H26.676ZM24.3166 28.6938H22.7719L23.5549 26.8224L24.3166 28.6938ZM32.8548 31.1118V25.3401H31.5746V28.8935L28.8026 25.3401H27.6071V31.1118H28.8873V27.4427L31.7439 31.1223H32.8548V31.1118ZM39.5626 30.1866L38.7374 29.3666C38.5401 29.578 38.3011 29.7468 38.0354 29.8626C37.7697 29.9783 37.4828 30.0385 37.1927 30.0394C36.958 30.0398 36.7257 29.9925 36.51 29.9006C36.2943 29.8086 36.0997 29.6738 35.9383 29.5046C35.7768 29.3353 35.6519 29.135 35.571 28.9161C35.4902 28.6971 35.4552 28.4641 35.4681 28.2312V28.2312C35.4567 28.0009 35.4922 27.7708 35.5724 27.5544C35.6526 27.3381 35.7759 27.1401 35.935 26.9723C36.094 26.8044 36.2855 26.6702 36.498 26.5776C36.7104 26.485 36.9395 26.436 37.1715 26.4334C37.7366 26.4475 38.2746 26.6772 38.6739 27.0747L39.4992 26.1391C39.199 25.838 38.8387 25.603 38.4414 25.449C38.0441 25.2951 37.6187 25.2258 37.1927 25.2455C36.7911 25.2327 36.3911 25.3007 36.0167 25.4453C35.6422 25.5899 35.301 25.8081 35.0135 26.0869C34.726 26.3657 34.4981 26.6994 34.3435 27.0679C34.1889 27.4363 34.1108 27.832 34.1139 28.2312V28.2312C34.1095 28.6258 34.185 29.0172 34.336 29.3822C34.4869 29.7472 34.7101 30.0783 34.9924 30.3558C35.2747 30.6334 35.6103 30.8517 35.9792 30.9978C36.3481 31.144 36.7428 31.2149 37.1398 31.2064C37.5944 31.2249 38.0474 31.143 38.4664 30.9667C38.8853 30.7903 39.2597 30.5239 39.5626 30.1866V30.1866ZM45.0749 31.1118V29.9764H41.9009V28.7674H44.6729V27.6319H41.8903V26.4545H45.0643V25.3191H40.6207V31.0908H45.0961L45.0749 31.1118Z" fill="#F0B90B"/>
<path d="M53.2951 27.2748C53.2959 26.9976 53.2371 26.7234 53.1226 26.4706C53.0081 26.2178 52.8405 25.9923 52.6311 25.8091C52.4217 25.6259 52.1753 25.4893 51.9085 25.4085C51.6416 25.3277 51.3604 25.3044 51.0838 25.3404H48.7773V31.0911H49.8354V29.2408H50.9992C52.2476 29.2408 53.2951 28.5679 53.2951 27.2748ZM52.2371 27.2748C52.2371 27.8951 51.7504 28.3261 50.978 28.3261H49.8036V26.2971H50.9992C51.7609 26.2971 52.2582 26.6125 52.2582 27.3484L52.2371 27.2748Z" fill="#1E2026"/>
<path d="M56.7768 25.2981H55.8246L53.2642 31.0908H54.3222L54.9252 29.7031H57.6867L58.2792 31.0908H59.3372L56.7768 25.2981ZM57.2952 28.8095H55.285L56.343 26.5071L57.2952 28.8095Z" fill="#1E2026"/>
<path d="M62.183 28.7991L64.5001 25.3403H63.3257L61.6752 27.8845L60.0352 25.3403H58.8291L61.1462 28.8307V31.091H62.2042L62.183 28.7991Z" fill="#1E2026"/>
</svg>
