<svg version="1.1" id="Layer_1" xmlns="http://www.w3.org/2000/svg" xmlns:xlink="http://www.w3.org/1999/xlink" x="0px" y="0px"
    viewBox="0 0 512 512" xml:space="preserve">
<path d="M84.6,214.4l14.9-5.9l11.7,29.8l-14.9,5.9L84.6,214.4z"/>
<path d="M496,207.3v35.1L256,366.3L16,242.5v-31.3L256,21.5l20.4,16.1l9.9-12.6L256,1.1L0,203.5v307.9h512v-304H496z M16,260.5
    l222.6,114.9L16,490.2V260.5z M40.9,495.3l215.1-111l215.1,111H40.9z M496,490.2L273.4,375.3L496,260.5V490.2z"/>
<path d="M187.4,148l-81.9,32.3l29.4,74.4l29.8-11.7l26.4,67l44.6-17.6l-26.4-67l7.4-2.9c42.1-17.2,89.3-17.3,131.5-0.3l17.4,7.2
    l-74.2-188l-7.8,17.1C264.4,99.7,229.9,131.8,187.4,148z M143.9,234l-17.6-44.6l59.5-23.5l17.6,44.6L143.9,234z M215,283.3
    l-14.9,5.9l-20.6-52.1l14.9-5.9L215,283.3z M337.4,201.3c-39-11.4-80.7-10.2-119,3.6l-17.9-45.3c37.4-16,68.7-43.6,89.4-78.6
    L337.4,201.3z"/>
<path d="M463.1,93.9c14.2,35.5,13.5,75.2-1.8,110.2l14.7,6.4c35.1-81.1-2-175.3-83.1-210.5l-6.4,14.7
    C421.6,29.8,449.2,58.3,463.1,93.9z"/>
<path d="M418.5,111.5c9.4,23.7,9,50.1-1.2,73.4l14.7,6.3c24.5-56.8-1.5-122.6-58.2-147.3l-6.4,14.7
    C390.8,68.8,409.2,87.8,418.5,111.5z"/>
<path d="M373.2,165.9l14.7,6.4c14-32.4-0.8-70.1-33.2-84.2l-6.4,14.7C372.6,113.3,383.8,141.6,373.2,165.9z"/>
</svg>