<svg xmlns="http://www.w3.org/2000/svg" viewBox="0 0 265.22 230.73"><defs><style>.cls-1{fill:#50af95;}.cls-1,.cls-2{fill-rule:evenodd;}.cls-2{fill:#fff;}</style></defs><g id="Layer_2" data-name="Layer 2"><g id="Layer_1-2" data-name="Layer 1"><path class="cls-1" d="M48.56,1.13.2,102.72A2,2,0,0,0,.62,105L131.23,230.17a2,2,0,0,0,2.76,0L264.6,105a2,2,0,0,0,.43-2.3L216.66,1.14A1.94,1.94,0,0,0,214.88,0H50.36a2,2,0,0,0-1.8,1.13Z"/><path class="cls-2" d="M149.39,113.15h0c-.93.07-5.78.36-16.59.36-8.59,0-14.69-.26-16.84-.36h0C82.75,111.69,58,105.9,58,99s24.8-12.7,58-14.18v22.59c2.18.16,8.4.52,17,.52,10.32,0,15.48-.43,16.41-.51V84.81c33.15,1.48,57.89,7.26,57.89,14.17s-24.73,12.69-57.89,14.16h0Zm0-30.67V62.26h46.26V31.44H69.71V62.26H116V82.47c-37.6,1.73-65.87,9.17-65.87,18.1S78.36,116.93,116,118.66v64.78h33.43v-64.8c37.5-1.73,65.73-9.16,65.73-18.08s-28.2-16.36-65.73-18.09h0Z"/></g></g></svg>