<svg width="58" height="58" viewBox="0 0 58 58" fill="none" xmlns="http://www.w3.org/2000/svg">
<circle cx="29" cy="29" r="28.5" stroke="#40B93C"/>
<path d="M24.7291 32.6092C24.5711 32.6891 24.3934 32.7356 24.2043 32.7356C23.7664 32.7356 23.3864 32.494 23.1864 32.1364L23.11 31.9683L19.9239 24.9501C19.8896 24.8737 19.8684 24.7875 19.8684 24.7033C19.8684 24.3799 20.1294 24.1176 20.4516 24.1176C20.5824 24.1176 20.7034 24.1612 20.8007 24.2339L24.5602 26.921C24.8349 27.1014 25.1632 27.2071 25.516 27.2071C25.7263 27.2071 25.9272 27.1678 26.1143 27.0997L43.7945 19.2001C40.6253 15.4504 35.4061 13 29.4996 13C19.8344 13 12 19.5543 12 27.6403C12 32.0514 14.3571 36.0223 18.0465 38.7062C18.3424 38.9182 18.5364 39.267 18.5364 39.6602C18.5364 39.7901 18.5086 39.9093 18.4748 40.0331C18.1801 41.1365 17.7085 42.9038 17.6862 42.9865C17.6496 43.125 17.5923 43.2695 17.5923 43.4145C17.5923 43.738 17.8533 44 18.1761 44C18.3023 44 18.4059 43.9529 18.5126 43.8911L22.3437 41.6705C22.6321 41.5036 22.9369 41.4002 23.2734 41.4002C23.452 41.4002 23.6248 41.4278 23.7873 41.4778C25.5747 41.9937 27.5031 42.2807 29.4996 42.2807C39.1645 42.2807 47 35.7255 47 27.6403C47 25.1911 46.2769 22.8849 45.0064 20.8559L24.8567 32.5351L24.7291 32.6092Z" fill="#40B93C"/>
</svg>
